<?xml version="1.0" standalone="no"?>
<!DOCTYPE svg PUBLIC "-//W3C//DTD SVG 20010904//EN"
 "http://www.w3.org/TR/2001/REC-SVG-20010904/DTD/svg10.dtd">
<svg version="1.0" xmlns="http://www.w3.org/2000/svg"
 width="1088.000000pt" height="1088.000000pt" viewBox="0 0 1088.000000 1088.000000"
 preserveAspectRatio="xMidYMid meet">

<g transform="translate(0.000000,1088.000000) scale(0.100000,-0.100000)"
fill="#000000" stroke="none">
<path d="M8570 10030 c-56 -26 -86 -54 -113 -105 -22 -39 -22 -51 -25 -525 -2
-331 0 -501 8 -536 22 -102 113 -174 220 -174 107 0 198 71 220 171 8 38 10
197 8 540 l-3 486 -30 49 c-62 99 -186 140 -285 94z"/>
<path d="M4687 9976 c-54 -20 -104 -61 -130 -109 -22 -41 -22 -48 -25 -489
l-3 -446 -94 -52 c-365 -203 -587 -560 -645 -1040 -5 -46 -10 -90 -10 -97 0
-10 -55 -13 -255 -13 l-256 0 3 548 c3 536 3 548 25 605 57 150 170 265 320
325 l68 27 330 3 c392 3 365 -6 365 129 0 135 33 123 -349 123 -348 0 -405 -5
-511 -47 -108 -44 -181 -92 -271 -182 -97 -97 -154 -186 -196 -306 l-28 -80
-3 -1122 c-1 -618 -6 -1123 -10 -1123 -4 0 -49 14 -100 30 -196 62 -287 75
-512 75 -239 0 -336 -14 -525 -77 -623 -207 -1088 -702 -1268 -1353 -173 -622
-141 -1354 91 -2095 142 -451 396 -907 713 -1275 82 -96 288 -300 379 -377
410 -343 826 -484 1249 -423 208 31 391 102 576 224 147 97 154 96 317 -13
228 -154 543 -240 808 -221 294 20 536 110 802 298 377 265 679 598 953 1052
70 117 221 416 227 450 3 19 -4 20 -137 26 -207 9 -318 32 -515 107 l-125 47
1915 5 1915 5 77 22 c281 80 493 289 575 568 17 57 18 198 21 2550 2 2716 5
2576 -53 2732 -73 192 -242 367 -435 448 -118 50 -166 55 -547 55 -410 0 -373
13 -373 -128 0 -72 3 -92 18 -105 15 -14 64 -16 367 -19 348 -3 350 -3 416
-29 128 -49 239 -148 297 -264 56 -113 56 -108 60 -682 l3 -533 -2753 0 -2753
0 65 44 c214 143 386 381 473 652 51 157 71 291 71 474 l1 155 -158 0 -157 0
0 358 c0 242 -4 373 -12 405 -16 65 -95 144 -160 160 -59 15 -83 15 -131 -2z
m5511 -4304 c2 -1988 6 -1880 -60 -2012 -41 -82 -142 -184 -224 -227 -128 -68
37 -63 -2272 -63 l-2093 0 -56 53 c-183 172 -340 421 -427 676 -96 278 -116
606 -56 899 44 209 151 454 277 632 87 122 282 317 403 402 155 109 363 210
523 253 37 10 67 22 67 26 0 11 -100 86 -201 152 -231 149 -495 241 -778 273
-467 51 -977 -121 -1359 -458 -176 -156 -181 -156 -378 15 -44 38 -127 101
-186 140 l-108 71 0 488 0 488 3463 -2 3462 -3 3 -1803z"/>
<path d="M5160 9480 c-17 -17 -20 -33 -20 -113 0 -78 3 -97 18 -110 17 -16
139 -17 1554 -17 1474 0 1536 1 1551 18 22 25 24 188 3 218 -14 19 -43 19
-1550 22 -1527 2 -1536 2 -1556 -18z"/>
</g>
</svg>
